<svg width="24" height="24" viewBox="0 0 24 24" fill="none" xmlns="http://www.w3.org/2000/svg">
<path d="M18.2426 5.75736C19.3679 6.88258 20 8.4087 20 10L14 10V4C15.5913 4 17.1174 4.63214 18.2426 5.75736Z" fill="#707070"/>
<path d="M8.11101 6.17971C9.26216 5.41054 10.6155 5 12 5V12H19C19 13.3845 18.5895 14.7378 17.8203 15.889C17.0511 17.0401 15.9579 17.9373 14.6788 18.4672C13.3997 18.997 11.9922 19.1356 10.6344 18.8655C9.2765 18.5954 8.02922 17.9287 7.05026 16.9497C6.07129 15.9708 5.4046 14.7235 5.13451 13.3656C4.86441 12.0078 5.00303 10.6003 5.53285 9.32122C6.06266 8.04213 6.95987 6.94888 8.11101 6.17971Z" fill="#707070"/>
</svg>
