<svg width="24" height="24" viewBox="0 0 24 24" fill="none" xmlns="http://www.w3.org/2000/svg">
<path d="M7.4024 5.98831C7.01189 5.59781 6.37872 5.59781 5.98821 5.98831C5.59768 6.37885 5.59768 7.01202 5.98821 7.40253L10.5858 12.0001L5.98833 16.5976C5.5978 16.9881 5.5978 17.6212 5.98833 18.0118C6.37887 18.4023 7.01202 18.4023 7.40255 18.0118L12 13.4143L16.5974 18.0118C16.988 18.4023 17.6211 18.4023 18.0117 18.0118C18.4022 17.6212 18.4022 16.9881 18.0117 16.5976L13.4142 12.0001L18.0118 7.40253C18.4023 7.01202 18.4023 6.37885 18.0118 5.98831C17.6213 5.59781 16.9881 5.59781 16.5976 5.98831L12 10.5859L7.4024 5.98831Z" fill="#707070"/>
<path d="M7.4024 5.98831C7.01189 5.59781 6.37872 5.59781 5.98821 5.98831C5.59768 6.37885 5.59768 7.01202 5.98821 7.40253L10.5858 12.0001L5.98833 16.5976C5.5978 16.9881 5.5978 17.6212 5.98833 18.0118C6.37887 18.4023 7.01202 18.4023 7.40255 18.0118L12 13.4143L16.5974 18.0118C16.988 18.4023 17.6211 18.4023 18.0117 18.0118C18.4022 17.6212 18.4022 16.9881 18.0117 16.5976L13.4142 12.0001L18.0118 7.40253C18.4023 7.01202 18.4023 6.37885 18.0118 5.98831C17.6213 5.59781 16.9881 5.59781 16.5976 5.98831L12 10.5859L7.4024 5.98831Z" fill="#707070"/>
<path d="M7.4024 5.98831C7.01189 5.59781 6.37872 5.59781 5.98821 5.98831C5.59768 6.37885 5.59768 7.01202 5.98821 7.40253L10.5858 12.0001L5.98833 16.5976C5.5978 16.9881 5.5978 17.6212 5.98833 18.0118C6.37887 18.4023 7.01202 18.4023 7.40255 18.0118L12 13.4143L16.5974 18.0118C16.988 18.4023 17.6211 18.4023 18.0117 18.0118C18.4022 17.6212 18.4022 16.9881 18.0117 16.5976L13.4142 12.0001L18.0118 7.40253C18.4023 7.01202 18.4023 6.37885 18.0118 5.98831C17.6213 5.59781 16.9881 5.59781 16.5976 5.98831L12 10.5859L7.4024 5.98831Z" fill="#707070"/>
</svg>
