<svg width="24" height="24" viewBox="0 0 24 24" fill="none" xmlns="http://www.w3.org/2000/svg">
<path d="M9.29342 10.7076C8.90178 10.895 8.46315 11 8 11C7.53685 11 7.09822 10.895 6.70658 10.7076C6.70418 10.7065 6.70178 10.7053 6.69938 10.7042C6.08493 10.4081 5.58685 9.90877 5.29237 9.29342C5.10495 8.90178 5 8.46315 5 8C5 6.34315 6.34315 5 8 5C9.65685 5 11 6.34315 11 8C11 8.46315 10.895 8.90178 10.7076 9.29342C10.7065 9.29582 10.7053 9.29822 10.7042 9.30062C10.4081 9.91507 9.90877 10.4131 9.29342 10.7076Z" fill="#707070"/>
<path d="M18 16C18 17.1046 17.1046 18 16 18C14.8954 18 14 17.1046 14 16C14 15.8208 14.0236 15.6472 14.0677 15.482C14.0746 15.4562 14.082 15.4306 14.0899 15.4053C14.2926 14.7537 14.8195 14.2449 15.4819 14.0677C15.6472 14.0236 15.8208 14 16 14C16.1792 14 16.3528 14.0236 16.518 14.0677C16.5438 14.0746 16.5694 14.082 16.5947 14.0899C17.2464 14.2926 17.7551 14.8195 17.9323 15.482C17.9764 15.6472 18 15.8208 18 16Z" fill="#707070"/>
<path d="M12.9207 14.3349L10.3957 11.81C10.9663 11.4504 11.4504 10.9663 11.81 10.3957L14.3349 12.9207C13.7373 13.2445 13.2445 13.7373 12.9207 14.3349Z" fill="#707070"/>
<path d="M17.6651 12.9207C18.2627 13.2445 18.7555 13.7373 19.0793 14.3349L21.7071 11.7071C22.0976 11.3166 22.0976 10.6834 21.7071 10.2929C21.3166 9.90237 20.6834 9.90237 20.2929 10.2929L17.6651 12.9207Z" fill="#707070"/>
<path d="M5.60426 11.81C5.03371 11.4504 4.54957 10.9663 4.19005 10.3957L2.29289 12.2929C1.90237 12.6834 1.90237 13.3166 2.29289 13.7071C2.68342 14.0976 3.31658 14.0976 3.70711 13.7071L5.60426 11.81Z" fill="#707070"/>
</svg>
